<svg xmlns="http://www.w3.org/2000/svg" viewBox="-4 -79 518 108">
  <!-- Melquiadez — wordmark. Fraunces 600 (opsz 72) convertido a paths. -->
  <style>
    :root { color: #120c08 }
    @media (prefers-color-scheme: dark) { :root { color: #f9f7f3 } }
  </style>
  <path fill="currentColor" d="M28-67L46-22.20L42.75-20.50L60.30-66.80Q60.95-68.65 61.83-69.33Q62.70-70 64.25-70L79.75-70Q80.70-70 81.18-69.62Q81.65-69.25 81.65-68.60Q81.65-68.05 81.30-67.65Q80.95-67.25 80.20-67.05L76.90-66.35Q75.55-66.05 75.05-65.25Q74.55-64.45 74.65-62.85L78.70-6.60Q78.80-5.10 79.28-4.53Q79.75-3.95 81.05-3.60L84.25-2.95Q84.95-2.80 85.28-2.43Q85.60-2.05 85.60-1.45Q85.60-0.85 85.13-0.42Q84.65 0 83.70 0L58.80 0Q57.85 0 57.38-0.40Q56.90-0.80 56.90-1.40Q56.90-2 57.23-2.37Q57.55-2.75 58.35-2.95L61.55-3.60Q63-3.95 63.53-4.60Q64.05-5.25 63.95-6.60L59.80-62.30L62.70-62.75L42-6.85Q41.35-5.20 40.73-4.70Q40.10-4.20 39.30-4.20Q38.70-4.20 38.20-4.40Q37.70-4.60 37.27-5.20Q36.85-5.80 36.35-7L14.55-61.55L17.35-63.05L13.10-9.05Q12.95-6.95 14.20-5.68Q15.45-4.40 17.60-3.65L20.80-2.80Q21.35-2.60 21.65-2.30Q21.95-2 21.95-1.45Q21.95-0.80 21.50-0.40Q21.05 0 20.10 0L2.85 0Q1.90 0 1.45-0.40Q1-0.80 1-1.40Q1-2.10 1.43-2.43Q1.85-2.75 2.50-3L4.95-3.70Q6.90-4.35 8.13-5.65Q9.35-6.95 9.55-9.15L13.60-60.55Q13.80-63.25 13.28-64.62Q12.75-66 11.20-66.35L8.20-66.90Q7.35-67.15 6.93-67.53Q6.50-67.90 6.50-68.55Q6.50-70 8.60-70L24.15-70Q25.55-70 26.43-69.40Q27.30-68.80 28-67 M132.25-27.90Q132.25-26.25 131.30-25.33Q130.35-24.40 128.50-24.40L97.40-24.40L97.40-26.90L117.40-26.90Q119.15-26.90 119.15-28.60Q119.15-36.25 116.75-40.03Q114.35-43.80 110.65-43.80Q107.65-43.80 105.42-41.90Q103.20-40 101.92-36.27Q100.65-32.55 100.65-27.10Q100.65-17.10 105.10-12.12Q109.55-7.15 116.85-7.15Q121.60-7.15 125.03-9.43Q128.45-11.70 129.65-15.65Q130.15-16.30 130.47-16.53Q130.80-16.75 131.15-16.75Q131.65-16.75 131.90-16.32Q132.15-15.90 132.10-15.20Q131.85-10.65 129.18-6.95Q126.50-3.25 121.97-1.05Q117.45 1.15 111.70 1.15Q104.95 1.15 99.75-1.73Q94.55-4.60 91.63-9.80Q88.70-15 88.70-21.95Q88.70-29.30 91.58-34.93Q94.45-40.55 99.75-43.73Q105.05-46.90 112.30-46.90Q118.55-46.90 123-44.45Q127.45-42 129.85-37.70Q132.25-33.40 132.25-27.90 M154.80-72.25L154.80-5.65Q154.80-4.50 155.17-3.93Q155.55-3.35 156.30-3.10L158.60-2.65Q159.25-2.45 159.55-2.10Q159.85-1.75 159.85-1.30Q159.85-0.70 159.42-0.35Q159 0 158.15 0L138.25 0Q137.40 0 137-0.35Q136.60-0.70 136.60-1.30Q136.60-1.75 136.90-2.10Q137.20-2.45 137.90-2.65L140.20-3.10Q141-3.35 141.35-3.93Q141.70-4.50 141.70-5.60L141.70-65.40Q141.70-66.25 141.42-66.62Q141.15-67 140.50-67.10L137.60-67.20Q137-67.30 136.72-67.60Q136.45-67.90 136.45-68.35Q136.45-68.90 136.77-69.20Q137.10-69.50 137.90-69.80L149.50-73.45Q150.75-73.95 151.47-74.12Q152.20-74.30 152.75-74.30Q153.80-74.30 154.30-73.73Q154.80-73.15 154.80-72.25 M214.10 23.35L193.40 23.35Q192.55 23.35 192.13 23Q191.70 22.65 191.70 22.05Q191.70 21.60 192 21.25Q192.30 20.90 192.95 20.70L195.90 20.20Q196.80 20 197.20 19.40Q197.60 18.80 197.60 17.60L197.60-41.15L205.55-45.80Q206.90-46.35 207.65-46.58Q208.40-46.80 208.95-46.80Q209.75-46.80 210.22-46.37Q210.70-45.95 210.70-45.10L210.70 17.65Q210.70 18.85 211.07 19.43Q211.45 20 212.25 20.25L214.55 20.70Q215.20 20.95 215.47 21.28Q215.75 21.60 215.75 22.05Q215.75 22.65 215.35 23Q214.95 23.35 214.10 23.35M199.60-11.55L201.10-9.70Q197.65-4.60 193.20-1.73Q188.75 1.15 183.10 1.15Q177.40 1.15 172.97-1.70Q168.55-4.55 166.05-9.62Q163.55-14.70 163.55-21.45Q163.55-29.10 166.50-34.83Q169.45-40.55 174.57-43.73Q179.70-46.90 186.15-46.90Q191.60-46.90 195.42-44.62Q199.25-42.35 201.65-38L199.35-36.25Q197.45-39.60 194.88-41.35Q192.30-43.10 188.90-43.10Q185.45-43.10 182.77-41.05Q180.10-39 178.57-34.60Q177.05-30.20 177.05-23.15Q177.05-16.55 178.47-12.28Q179.90-8 182.42-5.95Q184.95-3.90 188.30-3.90Q191.50-3.90 194.38-5.80Q197.25-7.70 199.60-11.55 M252.80-4.60L252.80-8.90L252.55-9.15L252.55-37.75Q252.55-38.60 252.27-38.98Q252-39.35 251.35-39.45L248.45-39.55Q247.85-39.65 247.57-39.95Q247.30-40.25 247.30-40.70Q247.30-41.25 247.63-41.55Q247.95-41.85 248.75-42.15L260.35-45.80Q261.60-46.25 262.32-46.45Q263.05-46.65 263.70-46.65Q264.65-46.65 265.15-46.08Q265.65-45.50 265.65-44.60L265.65-5.65Q265.65-4.50 266.02-3.93Q266.40-3.35 267.20-3.10L269.45-2.65Q270.10-2.45 270.40-2.10Q270.70-1.75 270.70-1.30Q270.70-0.70 270.30-0.35Q269.90 0 269 0L256.90 0Q255.10 0 253.95-1.28Q252.80-2.55 252.80-4.60M222.50-12.90L222.50-37.75Q222.50-38.60 222.20-38.98Q221.90-39.35 221.25-39.45L218.35-39.55Q217.75-39.65 217.47-39.95Q217.20-40.25 217.20-40.70Q217.20-41.25 217.52-41.55Q217.85-41.85 218.65-42.15L230.25-45.80Q231.55-46.30 232.27-46.48Q233-46.65 233.55-46.65Q234.55-46.65 235.07-46.08Q235.60-45.50 235.60-44.60L235.60-14.60Q235.60-10.20 237.65-8.08Q239.70-5.95 243.15-5.95Q245.30-5.95 247.65-6.95Q250-7.95 252.40-10.05L254.30-11.70L255.80-10.15L253.90-8.50Q248.10-3.20 243.67-1.07Q239.25 1.05 235.35 1.05Q229.65 1.05 226.07-2.58Q222.50-6.20 222.50-12.90 M292.90-44.70L292.90-5.65Q292.90-4.50 293.27-3.93Q293.65-3.35 294.40-3.10L296.70-2.65Q297.35-2.45 297.65-2.10Q297.95-1.75 297.95-1.30Q297.95-0.70 297.55-0.35Q297.15 0 296.25 0L276.35 0Q275.55 0 275.13-0.35Q274.70-0.70 274.70-1.30Q274.70-1.75 275-2.08Q275.30-2.40 275.90-2.60L278.30-3.10Q279.10-3.35 279.45-3.93Q279.80-4.50 279.80-5.60L279.80-37.85Q279.80-38.65 279.52-39.05Q279.25-39.45 278.60-39.50L275.70-39.60Q275.10-39.75 274.82-40.03Q274.55-40.30 274.55-40.75Q274.55-41.30 274.88-41.62Q275.20-41.95 276-42.20L287.60-45.90Q288.90-46.35 289.60-46.53Q290.30-46.70 290.85-46.70Q291.90-46.70 292.40-46.15Q292.90-45.60 292.90-44.70M285.65-53.75Q282-53.75 279.80-55.83Q277.60-57.90 277.60-61.10Q277.60-64.30 279.82-66.35Q282.05-68.40 285.65-68.40Q289.30-68.40 291.55-66.35Q293.80-64.30 293.80-61.10Q293.80-57.90 291.55-55.83Q289.30-53.75 285.65-53.75 M329.80-5.60L329.80-6.35L329.05-6.25L329.05-37.15Q329.05-40.70 327.40-42.62Q325.75-44.55 322.70-44.55Q319.65-44.55 318.07-43.15Q316.50-41.75 316.50-39.85L316.50-35.60Q316.50-32.85 314.60-31.18Q312.70-29.50 309.50-29.50Q306.90-29.50 305.45-30.85Q304-32.20 304-34.70Q304-37.60 306.38-40.40Q308.75-43.20 313.38-45.03Q318-46.85 324.75-46.85Q333.50-46.85 337.80-43.25Q342.10-39.65 342.10-33.35L342.10-7.40Q342.10-5.80 342.67-5.08Q343.25-4.35 344.25-4.35Q345.25-4.35 345.88-4.87Q346.50-5.40 346.80-6.30Q346.95-6.55 347.15-6.70Q347.35-6.85 347.65-6.85Q348-6.85 348.20-6.58Q348.40-6.30 348.40-5.80Q348.40-4.50 347.35-2.87Q346.30-1.25 344.15-0.07Q342 1.10 338.65 1.10Q334.40 1.10 332.10-0.73Q329.80-2.55 329.80-5.60M301.70-10.15Q301.70-16 306.80-19.60Q311.90-23.20 321.80-23.20Q324.95-23.20 327.27-22.62Q329.60-22.05 331.40-21.15L330.65-19.20Q328.95-20 327.17-20.48Q325.40-20.95 323.25-20.95Q319.35-20.95 317.15-18.65Q314.95-16.35 314.95-12.20Q314.95-8.15 316.92-6.03Q318.90-3.90 322-3.90Q324.40-3.90 326.70-5.03Q329-6.15 330.50-8.20L331.35-6.50Q328.85-2.85 324.60-0.87Q320.35 1.10 315.50 1.10Q309.35 1.10 305.52-2.02Q301.70-5.15 301.70-10.15 M385.45-3.95L385.45-7.20L385.20-7.40L385.20-65.40Q385.20-66.25 384.93-66.62Q384.65-67 384-67.10L381.10-67.20Q380.50-67.30 380.25-67.60Q380-67.90 380-68.35Q380-68.90 380.30-69.20Q380.60-69.50 381.45-69.80L393-73.45Q394.25-73.90 394.98-74.10Q395.70-74.30 396.35-74.30Q397.30-74.30 397.80-73.73Q398.30-73.15 398.30-72.25L398.30-5.65Q398.30-4.50 398.68-3.93Q399.05-3.35 399.85-3.10L402.10-2.65Q402.80-2.45 403.07-2.10Q403.35-1.75 403.35-1.30Q403.35-0.70 402.95-0.35Q402.55 0 401.65 0L389.40 0Q387.65 0 386.55-1.07Q385.45-2.15 385.45-3.95M351.15-21.60Q351.15-29.35 354.18-35.02Q357.20-40.70 362.30-43.78Q367.40-46.85 373.70-46.85Q379.20-46.85 383.15-44.48Q387.10-42.10 389.60-37.65L387.30-35.85Q385.35-39.40 382.57-41.23Q379.80-43.05 376.35-43.05Q373.05-43.05 370.40-41Q367.75-38.95 366.20-34.52Q364.65-30.10 364.65-22.95Q364.65-16.45 366.07-12.23Q367.50-8 370-5.98Q372.50-3.95 375.70-3.95Q378.80-3.95 381.70-5.78Q384.60-7.60 387.15-11.50L388.60-9.65Q384.85-4.30 380.47-1.58Q376.10 1.15 370.75 1.15Q365.05 1.15 360.63-1.70Q356.20-4.55 353.68-9.68Q351.15-14.80 351.15-21.60 M450-27.90Q450-26.25 449.05-25.33Q448.10-24.40 446.25-24.40L415.15-24.40L415.15-26.90L435.15-26.90Q436.90-26.90 436.90-28.60Q436.90-36.25 434.50-40.03Q432.10-43.80 428.40-43.80Q425.40-43.80 423.18-41.90Q420.95-40 419.68-36.27Q418.40-32.55 418.40-27.10Q418.40-17.10 422.85-12.12Q427.30-7.15 434.60-7.15Q439.35-7.15 442.77-9.43Q446.20-11.70 447.40-15.65Q447.90-16.30 448.23-16.53Q448.55-16.75 448.90-16.75Q449.40-16.75 449.65-16.32Q449.90-15.90 449.85-15.20Q449.60-10.65 446.93-6.95Q444.25-3.25 439.73-1.05Q435.20 1.15 429.45 1.15Q422.70 1.15 417.50-1.73Q412.30-4.60 409.38-9.80Q406.45-15 406.45-21.95Q406.45-29.30 409.32-34.93Q412.20-40.55 417.50-43.73Q422.80-46.90 430.05-46.90Q436.30-46.90 440.75-44.45Q445.20-42 447.60-37.70Q450-33.40 450-27.90 M493.15-41.80L467.20-1.20L465.15-2.75L478.40-2.75Q480.90-2.75 482.72-3.48Q484.55-4.20 486.22-6.12Q487.90-8.05 490-11.70L492.15-15.60Q492.55-16.30 493.05-16.53Q493.55-16.75 494.10-16.65Q494.75-16.50 495-16.05Q495.25-15.60 495.05-14.75L492.15-0.50Q491.95 0.50 491.57 0.88Q491.20 1.25 490.60 1.25Q489.80 1.25 488.75 0.63Q487.70 0 485.75 0L455.85 0Q454.65 0 454.13-0.35Q453.60-0.70 453.60-1.35Q453.60-1.85 453.85-2.45Q454.10-3.05 454.70-3.95L480.70-44.50L482.95-43L469.30-43Q467.20-43 465.65-42.37Q464.10-41.75 462.70-40.10Q461.30-38.45 459.70-35.45L457.50-31.40Q457.10-30.75 456.63-30.50Q456.15-30.25 455.55-30.40Q454.95-30.55 454.65-31.05Q454.35-31.55 454.55-32.40L457.10-45.10Q457.30-46.10 457.68-46.53Q458.05-46.95 458.70-46.95Q459.50-46.95 460.52-46.37Q461.55-45.80 463.45-45.80L492-45.80Q493.25-45.80 493.75-45.45Q494.25-45.10 494.25-44.40Q494.25-43.95 494-43.35Q493.75-42.75 493.15-41.80"/>
</svg>
